 <svg
      viewBox="0 0 160 170"
      fill="none"
      xmlns="http://www.w3.org/2000/svg"
    >
      <title>European Cup</title>
      <path
        fillRule="evenodd"
        clipRule="evenodd"
        d="M49.566 108.328S31.258 76.699 31.258 39.039c0-20.152 6.949-25.309 14.055-25.309 7.066 0 7.558 5.051 7.558 7.118 0 7.691-7.941 10.5-7.941 21.261 0 10.746 8.914 11.114 8.914 11.114l-9.758 8.3s-1.48 28.844 5.48 46.805zm65.004-66.219c0-10.761-7.933-13.57-7.933-21.261 0-2.067.492-7.117 7.57-7.117 7.094 0 14.047 5.156 14.047 25.308 0 37.66-18.32 69.289-18.32 69.289 6.968-17.96 5.496-46.805 5.496-46.805l-9.77-8.3s8.91-.367 8.91-11.114zm-18.328 95.922s37.274-35.804 37.274-101.91c0-14.66-6.227-28.121-18.809-28.121-10.758 0-13.199 9.047-13.199 12.227 0 9.656 7.078 14.191 7.078 22.613 0 0-4.637-6.238-28.832-6.238-24.2 0-28.824 6.238-28.824 6.238 0-8.422 7.07-12.957 7.07-22.613C58 17.047 55.555 8 44.805 8 32.219 8 26 21.46 26 36.121c0 66.106 37.25 101.91 37.25 101.91 0 6.84 5.629 6.84 5.629 6.84v7.578c0 5.137-14.54 8.301-15.895 8.301-1.332 0-3.175.973-3.175 3.68 0 2.672 19.312 3.422 29.945 3.422s29.941-.75 29.941-3.422c0-2.707-1.832-3.68-3.183-3.68-1.348 0-15.88-3.164-15.88-8.301v-7.578s5.61 0 5.61-6.84z"
        fill="rgba(12, 12, 12, 0.7)"
      />
    </svg>