 <svg
      viewBox="0 0 160 170"
      fill="none"
      xmlns="http://www.w3.org/2000/svg"
    >
      <title>FA Cup</title>
      <path
        d="M110.042 90.133c-3.098 3.836-3.769 3.77-4.476 3.668-.504-.942-1.247-1.074-2.254-.57-1.012.503-.672 2.019-.672 2.019s-4.04.637-6.024 5.953c-.527 1.414-.742 2.598-.77 3.582-1.51-3.887-2.331-10.047 1.192-20.62 0 0 1.73-.93 1.832-2.458.89-.781 1.403-1.625 1.676-2.445.438.195.355.691.512 1.285.605 1.68 1.582 2.152 2.343 2.152.762 0 2.012-.64 2.012-1.937 0-2.27-2.012-2.012-2.012-2.012-1.191-1.797 2.7-7.918 7.176-4.934 5.262 3.504 2.559 12.48-.535 16.317zm-46.531 14.652c-.028-.984-.238-2.168-.77-3.582-1.984-5.316-6.023-5.953-6.023-5.953s.34-1.516-.672-2.02c-1.008-.503-1.75-.37-2.254.57-.707.102-1.379.169-4.473-3.667-3.097-3.836-5.8-12.813-.539-16.317 4.477-2.984 8.368 3.137 7.18 4.934 0 0-2.016-.258-2.016 2.012 0 1.297 1.254 1.937 2.016 1.937.758 0 1.734-.472 2.34-2.152.156-.594.074-1.09.516-1.285.27.82.78 1.664 1.671 2.445.102 1.527 1.836 2.457 1.836 2.457 3.52 10.574 2.7 16.734 1.188 20.621zm52.754-27c-.403-4.61-3.633-6.222-4.676-6.828-1.043-.605-1.348-1.563-2.457-1.73-1.109-.168-.102.921-.102 1.226 0 .3-.808-.101-2.421.234-4.34 1.145-5.317 3.598-5.653 4.61-.137.406-.32.394-.492.242a9.304 9.304 0 00-.125-.344.312.312 0 01.105-.379c.36-.265 1.051-.879.95-1.64-.137-1.028-2.52-.688-3.399-1.059-1.547-.656-1.683-2.473-2.289-2.422-.031-.675-.972-1.011-.972-1.011-.239-2.91-3.618-2.051-4.31-2.356-.366-.16-.41-.508-.89-.656-1.175-.36-2.91-.48-3.398-.672-.692-.27-1.668-1.7-1.668-1.7s.59-.519.59-.89c0 0 1.21-.472 1.21-1.21 0 0 2.356-.81 1.903-2.845-.285-1.277-2.828-1.863-3.973-2.062a2.446 2.446 0 01-1-.422c-.41-.297-1.015-.695-1.414-.793-.125-.031-.086-.437-.086-.523 0-.356-.562-.461-.562-.614v-.535s.297-.031.297-.199v-.355c0-.094-.336-.11-.336-.192v-.219s.25-.086.25-.336c0-.324 0-.613.887-.843h-.004c.683-.192 1.902-.778 1.902-2.547 0-1.715-2.356-1.75-2.356-4.574v-2.493l.356-.148c.36-.156.246-.691-.14-.691h-1.485v-.028a.781.781 0 00-.781-.781h-.094a.781.781 0 00-.781.781v.028h-1.48c-.391 0-.5.535-.145.691l.355.148v2.493c0 2.824-2.355 2.859-2.355 4.574 0 1.77 1.218 2.355 1.902 2.547.883.23.883.52.883.843 0 .25.25.336.25.336v.22c0 .081-.336.097-.336.19v.356c0 .168.297.2.297.2v.534c0 .153-.563.258-.563.614 0 .086.04.492-.086.523-.398.098-1.004.496-1.414.793a2.446 2.446 0 01-1 .422c-1.144.2-3.687.785-3.972 2.063-.453 2.035 1.902 2.843 1.902 2.843 0 .739 1.21 1.211 1.21 1.211 0 .371.59.89.59.89s-.976 1.43-1.667 1.7c-.488.191-2.219.313-3.395.672-.484.148-.527.496-.894.656-.688.305-4.07-.555-4.305 2.356 0 0-.945.335-.977 1.011-.605-.05-.742 1.766-2.289 2.422-.875.371-3.261.031-3.398 1.059-.098.761.59 1.375.95 1.64a.32.32 0 01.109.38c-.04.09-.083.206-.13.343-.171.152-.355.164-.492-.242-.336-1.012-1.312-3.465-5.652-4.61-1.613-.335-2.422.067-2.422-.234 0-.305 1.012-1.394-.101-1.226-1.11.167-1.414 1.125-2.457 1.73-1.043.606-4.274 2.219-4.676 6.828-.403 4.61.437 8.344 3.8 13.192 3.368 4.843 7.337 5.246 8.008 5.246 0 0-.402 1.851.774 2.222 1.18.371 1.113-.742 1.719-.57.605.168 1.78.672 2.859 3.195 1.078 2.524.941 4.071.469 4.305-.469.234-2.219.91-1.547 2.559.406.988 1.437 1.043 2.2.929-.817 1.336-1.298 2.215-.684 3.075-.551.062-.836.542-.977.917a3.935 3.935 0 01-.504.938c-1.082 1.492-3.887 6.129-.64 10.41 3.617 4.762 9.796 6.543 14.171 6.57 0 0-.215.977.707 1.196-.84.515-.41 1.597-.41 1.597s-6.191 1.024-6.914 1.141c-.719.117-.152.953-.152 1.66-1.098.266-1.258.699-1.211 1.012a.416.416 0 01-.258.449c-.86.348-1.094 1.695-1.094 1.695l-.633.555c-.203.176-.449.285-.71.352-1.165.297-2.614 1.605-.805 2.898l-.078.379c-.059.66.414.684.164 3.055-.203 1.902-.793 3.902-.793 3.902s-2.16 1.828-2.254 3.195c-2.078.094-1.95 2.356-1.95 2.356-1.968 1.027-1.683 2.726-1.683 2.726-2.082.633-2.703 2.446-2.883 3.528a1.804 1.804 0 00.7 1.761c1.789 1.301 7.703 3.528 27.195 3.528s25.406-2.227 27.195-3.528a1.804 1.804 0 00.703-1.761c-.183-1.082-.804-2.895-2.886-3.528 0 0 .285-1.699-1.684-2.726 0 0 .129-2.262-1.949-2.356-.094-1.367-2.254-3.195-2.254-3.195s-.59-2-.793-3.902c-.25-2.371.226-2.395.164-3.055l-.078-.379c1.808-1.293.36-2.601-.805-2.898a1.72 1.72 0 01-.71-.352l-.634-.555s-.234-1.347-1.093-1.695a.416.416 0 01-.258-.449c.05-.313-.113-.746-1.211-1.012 0-.707.57-1.543-.152-1.66-.723-.117-6.915-1.141-6.915-1.141s.434-1.082-.406-1.597c.922-.219.703-1.196.703-1.196 4.375-.027 10.555-1.808 14.172-6.57 3.246-4.281.442-8.918-.64-10.41a4.06 4.06 0 01-.504-.938c-.141-.375-.43-.855-.977-.917.613-.86.133-1.739-.683-3.075.761.114 1.796.059 2.199-.929.672-1.649-1.078-2.325-1.547-2.559-.473-.234-.606-1.781.469-4.305 1.078-2.523 2.254-3.027 2.859-3.195.605-.172.539.941 1.719.57 1.176-.37.773-2.222.773-2.222.672 0 4.641-.403 8.008-5.246 3.363-4.848 4.203-8.583 3.801-13.192z"
        fill="rgba(12, 12, 12, 0.7)"
      />
    </svg>