 <svg
      viewBox="0 0 160 170"
      fill="none"
      xmlns="http://www.w3.org/2000/svg"
    >
      <title>FIFA Club World Cup</title>
      <path
        d="M101.643 163.082c-.176-.93-1.797-3.793-2.715-5.375-.035-.066-.074-.129-.113-.195l-.008-.016c-5.808-9.984-9.355-23.461-9.355-23.461-9.192-40.422 9.625-66.266 9.625-66.266s-1.223-.093-2.641.399c.32-.984.5-2.05.598-2.863a17.52 17.52 0 00.113-1.3h-.004c.012-.302.027-.607.027-.911C97.17 53.117 89.05 45 79.073 45c-9.98 0-18.098 8.117-18.098 18.094 0 2.066.367 4.043 1.008 5.89h-.004c-.387-.363-1.098-.715-1.758-.984-.039-.02-.078-.04-.121-.055l-.05-.015c-.723-.29-1.34-.477-1.34-.477.851 1.426 2.253 3.734 3.843 6.832 3.578 7.172 8.54 19.461 9.742 34.348.543 7.687.09 16.211-2 25.402 0 0-2.129 7.977-6.03 17.016l-.079.176c-2.399 5.726-4.715 9.644-5.945 11.55-.5.778-.192 1.813.652 2.192 2.598 1.168 8.773 3.117 21 3.117 11.887 0 18.055-1.844 20.777-3.016a1.709 1.709 0 00.973-1.988z"
        fill="rgba(12, 12, 12, 0.7)"
      />
    </svg>