 <svg
      viewBox="0 0 160 170"
      fill="none"
      xmlns="http://www.w3.org/2000/svg"
    >
      <title>League Title</title>
      <g fill="rgba(12, 12, 12, 0.7)">
        <path
          fillRule="evenodd"
          clipRule="evenodd"
          d="M153.527 88.914l.157.187-.352.493a12.814 12.814 0 00-8.594-3.297h-2.129v-.875l1.282-1.489a1 1 0 00-.223-1.492 12.664 12.664 0 01-5.848-10.675v-4.31c.118-.1.266-.21.453-.226.915.688 3.665.97 4.883-1.828.524-1.199.387-2.148-.019-2.851.504.64 1.175 1.207 2.039 1.652 1.191.605 1.664 1.594 2.176 2.082.043.035.109.004.101-.055-.035-.379-.074-1.312.442-1.172.781.22 1.074 1.141.64 1.579-.281.28-.605.187-.797.085a.123.123 0 00-.183.114c.027 1.136 2.289.972 1.855-.989-.019-.093.094-.152.152-.081.743.894 2.633 3.554.11 4.867-1.34-.688-2.906-.242-3.434 1.187-.312.844-.133 2.028.344 2.84.613 1.047 1.738 1.672 1.922 1.813.117.09.574 3.87 1.762 3.87.75 0 1.468-1.632 1.937-2 .031 1.563 1.59 2.126 1.59 2.126 0 4.09-.652 4.726-.652 5.453 0 .726.933 1.136.933 1.136l-.476.457a1.027 1.027 0 00-.071 1.399zM140.66 62.879a.892.892 0 00.152.09c.61.23.704.609.583 1.312-.125.7 1.011.418 1.011.418-.422 1.547-1.828 1.828-2.578 1.828-.398-.867-1.035-1.02-1.426-1.023l2.258-2.625zm2.059-4.48a.242.242 0 01.343-.227c.356.168.93.383 1.52.386a.2.2 0 01.195.22c-.062.71.071 2.816 1.993 2.706 2.515-.144 1.718-2.933.187-2.715 0 0-.094-1.03 1-1.375.926-.293 2.293.336 2.367 2.778a.1.1 0 01-.16.086c-.168-.121-.43-.282-.648-.242 0 0 .945 1.32-.094 2.359a3.75 3.75 0 01-.68.539l-.012-.266a.29.29 0 00-.449-.234c-.828.539-1.984.758-2.761.57-1.336-.328-2.672-1.98-2.801-4.586zm1.054-2.66c.375-1.821 2.368-2.192 2.997-2.263a.143.143 0 01.156.172c-.106.508-.387 1.813.594 2.528 0 0-1.829.117-2.465 1.664a.205.205 0 01-.262.12c-.418-.16-1.34-.687-1.02-2.222zm7.805 7.464c.984-.281 1.094.922-.219 1.309-1.312.39-2.355-.746-2.355-.746 1.043-.344 1.934-1.75 1.793-1.485-.141.266-.203 1.203.781.922zm-1.625 10.117c1.344-.867.371-2.25.371-2.25.434-.187 1.129-1 1.129-1s-.062 1.188-.062 1.957c0 .77.593 1.07.593 1.07-.031.376-.765 1.254-1.175 1.254-.84 0-.856-1.03-.856-1.03zm.371 1.996c-.469.188-1.058.125-1.058.125-1.278 0-2.246-1.031-2.028-2.152.145-.738.657-.836.657-.836.207 1.02 1.437 1.023 1.437 1.023-.461 1.22.992 1.84.992 1.84zm3.469-3.52v4.497c-1.094.36-1.332 1.242-1.332 1.242v-4.379s.469-.289.469-1.129c0 0 .863-.816.863-.23zm-.84-1.171s.176-1.172-.492-1.637v-.703s.703.98 1.332.98v1.055l-.84.305zm.84-3.66v1.14s-1.344-.125-3.32-2.62c0 0 2.808.55 3.32-2.063v1.172s-.605.699-.527 1.34a1.76 1.76 0 00.527 1.03zm-4.18-13.13c1.996 0 4.18 1.966 4.18 5.556v3.406s-.543-1.739-2.434-1.39c0 0 .36-5.083-2.961-5.286a.28.28 0 01-.265-.234c-.082-.575-.129-2.051 1.48-2.051zm-17.718-28.312c.25-.379 1.355-.48 2.023-.992.84-.637 1.711-1.976.336-3.453 0 0 1.957-.059 2.574-.168a.173.173 0 01.195.121c.274.914-.183 1.367-.48 2.352-.102.343-.016.687-.141.816-.484.48-2.488 1.773-4.297 1.691-.179-.007-.308-.214-.21-.367zm-1.028-2.23c-.047.777-1.344 2.449-1.746 2.078-.562-.516-1.508-.168-1.676-.234-.168-.067-1.277-2.262-1.097-2.457.879-.954 1.23-2.543 2.035-2.543.805 0 1.375-.504 1.375-.504s1.109 1.008 2.133 1.14c-1.258.809-1.004 2.184-1.024 2.52zm-20.883 48.504c0-.586.868.23.868.23 0 .84.468 1.13.468 1.13v4.378s-.238-.883-1.336-1.242v-4.496zm0-2.531c.633 0 1.336-.981 1.336-.981v.703c-.668.465-.492 1.637-.492 1.637l-.844-.305v-1.054zm0-2.301s.454-.39.532-1.032c.078-.64-.532-1.34-.532-1.34v-1.171c.516 2.613 3.325 2.062 3.325 2.062-1.977 2.496-3.325 2.621-3.325 2.621v-1.14zm0-7.575c0-3.59 2.184-5.554 4.184-5.554 1.609 0 1.559 1.476 1.477 2.05a.276.276 0 01-.262.235c-3.324.203-2.965 5.285-2.965 5.285-1.887-.348-2.434 1.39-2.434 1.39v-3.405zm5.84-1.996c1.09.344 1 1.375 1 1.375-1.531-.218-2.332 2.57.184 2.715 1.926.11 2.054-1.996 1.996-2.707a.196.196 0 01.191-.219c.59-.004 1.164-.218 1.52-.386a.242.242 0 01.344.226c-.129 2.606-1.465 4.258-2.801 4.586-.774.188-1.93-.031-2.762-.57-.187-.125-.437.008-.449.234l-.012.266a3.892 3.892 0 01-.68-.54c-1.039-1.038-.093-2.358-.093-2.358-.215-.04-.481.12-.649.242-.066.05-.164-.004-.16-.086.078-2.442 1.442-3.07 2.371-2.778zm1.031-3.746a.143.143 0 01.157-.172c.625.07 2.617.442 2.996 2.262.316 1.535-.606 2.063-1.024 2.223a.205.205 0 01-.261-.121c-.637-1.547-2.465-1.664-2.465-1.664.984-.715.703-2.02.597-2.528zm-4.437 10.864c-1.309-.387-1.199-1.59-.219-1.309.985.281.922-.656.781-.922-.14-.265.75 1.14 1.797 1.485 0 0-1.047 1.136-2.359.746zm1.035 6.558s-.973 1.383.371 2.25c0 0-.015 1.031-.855 1.031-.41 0-1.141-.879-1.172-1.254 0 0 .59-.3.59-1.07s-.063-1.957-.063-1.957.696.813 1.129 1zm.996 2.406s1.227-.004 1.438-1.023c0 0 .511.098.652.836.219 1.121-.746 2.152-2.027 2.152 0 0-.586.063-1.059-.125 0 0 1.453-.62.996-1.84zm9.633-6.949c-.75 0-2.156-.281-2.578-1.828 0 0 1.137.281 1.016-.418-.125-.703-.032-1.082.578-1.312.031-.012.062-.032.09-.047l2.23 2.586c-.398.027-.969.218-1.336 1.02zm33.508 32.621c0-2.105-.508-4.086-1.406-5.84.511-1.18 1.113-3.082.359-4.285l.019-.02a1.024 1.024 0 00-.089-1.542l-.524-.403s.563-.425.563-1.136c0-.707-1.848-4.211-.688-5.985 0 0 .625-.765.625-1.812 0-1.309-1.25-1.934-1.25-1.934l-.101-7.011s1.492-.387 1.492-2.637c0-1.438-1.559-2.168-1.559-2.168l-.082-5.45s.188-3.78-2.933-5.34c-3.125-1.562-1.657-3.495-1.813-3.808-.152-.305-1.488.137-1.672 2.434a.181.181 0 01-.191.168c-.68-.055-3.184-.094-4.973 2.113-1.562 1.926-2.109 5.195-.547 7.621-.726-.832-1.832-1.168-2.222-1.02a.535.535 0 00-.125.067l-4.121-2.61c0-7.027 8.867-4.433 7.867-6.495-.297-.614-1.508-1.04-3.059-1.336-.656-.946-1.742-1.973-3.387-1.973h-1.406s-.562-1.281-2.902-1.281h-.738v-2.868c.187-1.308 2.234-1.777 2.332-3.96.168-3.641-1.325-7.313-1.739-8.254-.047-.11.028-.223.141-.239 1.652-.195-.309-3.812-.18-4.425.133-.637 4.328-2.516 4.629-3.286.305-.773.137-3.828-.637-4.296-.769-.47-5.234-1.383-6.222-1.309-.688-1.074-2.199.27-2.199.27s-3.497 1.664-3.723 3.457c-.27 2.347 1.98 4.16 2.148 4.664.168.5-.257 1.777-.437 4.058-.102 1.285.762 1.527 1.168 1.57a.152.152 0 01.137.196c-.133.484-.368 1.973.339 5.515.489 2.446 1.602 4.621 2.567 5.778v3.129h-.703c-2.34 0-2.903 1.28-2.903 1.28h-1.406c-1.644 0-2.73 1.028-3.383 1.974-1.554.297-2.765.722-3.062 1.335-1 2.063 7.867-.53 7.867 6.497l-4.074 2.582c-.024-.012-.047-.028-.075-.04-.73-.28-3.941 1.133-2.554 4.31 1.215 2.796 3.965 2.515 4.879 1.827.14.012.258.075.355.149v4.363c0 4.336-2.215 8.371-5.875 10.695l-.004.004a.994.994 0 00-.222 1.492l1.277 1.489v.875h-2.129c-3.301 0-6.316 1.25-8.59 3.297l-.355-.493.16-.187a1.031 1.031 0 00-.074-1.398l-.477-.458s.938-.41.938-1.136c0-.727-.657-1.364-.657-5.453 0 0 1.563-.563 1.594-2.125.465.367 1.184 2 1.934 2 1.187 0 1.644-3.782 1.761-3.871.184-.141 1.309-.766 1.922-1.813.477-.813.657-1.996.344-2.84-.527-1.43-2.09-1.875-3.434-1.187-2.523-1.313-.632-3.973.11-4.867.062-.07.172-.012.152.081-.433 1.961 1.832 2.126 1.856.989a.123.123 0 00-.184-.114c-.191.102-.512.196-.793-.085-.437-.438-.144-1.36.641-1.579.515-.14.472.793.437 1.172-.004.059.063.09.102.055.511-.488.988-1.477 2.176-2.082 4.175-2.145 3.902-7.133 1.812-9.711-1.789-2.207-4.293-2.168-4.976-2.113a.179.179 0 01-.188-.168c-.188-2.297-1.523-2.739-1.676-2.434-.156.313 1.313 2.246-1.812 3.809-3.121 1.558-2.934 5.34-2.934 5.34l-.078 5.449s-1.562.73-1.562 2.168c0 2.25 1.492 2.636 1.492 2.636l-.102 7.012s-1.246.625-1.246 1.934c0 1.047.621 1.812.621 1.812 1.164 1.774-.687 5.278-.687 5.985 0 .71.562 1.136.562 1.136l-.523.403a1.024 1.024 0 00-.09 1.543l.023.02c-.754 1.202-.152 3.105.356 4.284a12.8 12.8 0 00-1.403 5.84v2.867c0 3.43 1.118 10.645 4.067 17.653-.488.719-.528 1.844-.02 2.879.508 1.039 1.418 1.699 2.289 1.758 3.325 5.871 8.172 10.898 15.016 12.41-.559.328-.906.828-.906.828-1.832 0-2.524 1.324-4.153 2.308-.289.172-.203.614.133.657 1.86.242 5.164.925 5.164 2.718 0 1.825-1.156 2.739-1.984 3.161a.117.117 0 00-.051.039.36.36 0 00.113.636c.008 0 .008.008.016.008.828.274 2.332.692 2.332 1.871 0 .883-1.187 1.867-1.187 1.867v.375c-2.79 0-2.258 6.29-3.465 9.954-.321.976-1.008 1.437-1.571 1.742-1.074.23-2.039.508-2.843.832-1.754.703-2.282 1.597-2.969 2.09-.496.359-1.969.523-2.625.922a1.69 1.69 0 00-.809 1.453v.734s4.684 1.121 19.153 1.121c14.464 0 19.152-1.121 19.152-1.121v-.734a1.7 1.7 0 00-.809-1.453c-.66-.399-2.129-.563-2.629-.922-.687-.493-1.21-1.387-2.964-2.09-.809-.324-1.774-.602-2.844-.832-.567-.305-1.25-.766-1.574-1.742-1.207-3.664-.672-9.954-3.461-9.954v-.375s-1.192-.984-1.192-1.867c0-1.179 1.508-1.597 2.336-1.871.004 0 .008-.008.016-.008a.366.366 0 00.258-.347.368.368 0 00-.145-.289.123.123 0 00-.055-.039c-.824-.422-1.984-1.336-1.984-3.161 0-1.793 3.305-2.476 5.168-2.718.336-.043.422-.485.129-.657-1.625-.984-2.32-2.308-4.148-2.308 0 0-.348-.5-.907-.828 6.844-1.512 11.692-6.547 15.02-12.418.844-.094 1.719-.742 2.211-1.75.488-1.004.465-2.086.023-2.809 2.969-7.027 4.098-14.281 4.098-17.723v-2.867z"
        />
        <path d="M52.227 140.574l-.352-.312c3.332-6.782 19.945-42.356 19.945-77.93h11.051c-3.973 38.535-18.687 67.078-30.644 78.242zm-.418-107.66c3.437-3.2 5.035-5.594 5.035-5.594.715 2.813.93 5.274.992 6.434-1.168-.324-3-.64-6.027-.84zm7.898 12.055c2.348-.59 2.152-1.266 2.152-1.266h3.051a.502.502 0 00.125.988c.05 0 .094-.011.14-.023.266.34.802.988.802.988s-.266.371-.121.692c.144.32-1.172.894-1.348 1.39-.18.492-1.055.606-1 .985.058.379.84 1.168.84 1.168s.148-.641.41-.696c.265-.058 1.195.035 1.223.387.027.348-1.055 1.215-1.348.98 0 0-.235.583.375 1.11 0 0 .933-.574 1.02-.168.085.41-.852 1.305-1.786 1.562-.937.258-1.781.457-2.625.075-.844-.387-1.976-.653-2.277.71l.172.087a2.655 2.655 0 00-2.371 2.62c0 .258.035.508.105.743-1.262-1.352-1.898-3.09-1.86-5.375.079-4.77 1.977-6.367 4.321-6.957zm1.918 9.687c.668-.101 1.95-.215 2.957.16.336.13 1.746 1.16 1.867 1.602.157.566.082 3.258-.926 3.715a.984.984 0 00-.558.676 17.78 17.78 0 01-2.797-.68 16.742 16.742 0 01-2.25-.91 2.647 2.647 0 001.707-4.563zm5.055-10.953a.503.503 0 00.007.906l-.3.778-.965-.875a.493.493 0 00.121-.32.504.504 0 00-.371-.489h1.508zm.851 16.078c.028-.258.453-2.886 1.086-3.031.422-.098 2.645.344 4.942-.836 1.097-.562 1.257.176 1.773.969.504.777 1.07 1.996.973 2.77-.063.515-1.676.624-1.762 1.285-.238 0-.48 0-.73.003-2.653.008-4.731.172-6.77.075.398-.25.422-.668.488-1.235zm1.008-16.078a.51.51 0 00-.195.39c0 .204.117.372.285.454l-.934.879-.558-.832a.505.505 0 00.27-.438c0-.199-.118-.37-.286-.453h1.418zm.813.399a.513.513 0 00-.196-.399h.738a.53.53 0 00-.152.356c0 .09.027.175.067.246l-.653.691-.137-.426a.51.51 0 00.333-.468zm.89.464a.505.505 0 00.508-.5c0-.14-.059-.27-.152-.363h13.074c.004.152.004.313.008.48 0-.003 0-.007-.004-.011 0 0-1.102 1-1.903 1.293l.032-.594s-1.192-.059-2.164.492c-.293.164-2.079-.281-3.41-.05-1.977.343-4.004.804-3.782 3.18.223 2.37 4.95.698 5.715.566 1.219-.211 2.902.226 2.332 1.554-.57 1.332-1.602.317-2.074.168-.473-.152-1.57-.218-3.028.246-1.453.465-2.785.367-3.078-.136-.297-.504.477-.41.477-.41l-1.445-1.403.418-.473-1.207-1.46.21-.41s-.765-.63-1.332-.66c0 0-.23-.263.184-.727.273-.309.457-.617.547-.79a.48.48 0 00.074.008zm8.281 14.672c-.496-2.226-.004-3.261-.004-3.261s.938 1.062 1.516 1.625c1.32 1.289 1.727 2.187 1.668 2.511-.059.325-.781.332-.863.825-.922-.004-2.203-.008-3.98-.004.16-.043.312-.118.437-.23.469-.419 1.289-1.192 1.226-1.466zm4.63-.054c-.009-.016-.012-.036-.024-.047-.207-.274-1.809-2.043-1.942-4.567-.023-.496-.109-1.37-.64-2.117 0 0 2.055-1.559 1.32-2.84-.734-1.277-2.242-1.73-4.23-1.36-1.989.376-4.227.927-4.297-.112-.082-1.172 2.266-2.594 5.937-1.743 0 0 .555 1.368 1.86 1.227 1.304-.14.773-.32.422-.77 0 0 1.922-1.312 2.125-2.335.027 3.957-.344 11.292-.532 14.664zM44.034 32.695c-1.933 0-3.62.032-5.097.082l5.097-6.93 5.094 6.93a148.54 148.54 0 00-5.094-.082zm-13.804 1.059c.062-1.16.277-3.621.992-6.434 0 0 1.597 2.395 5.035 5.594-3.028.2-4.86.516-6.028.84zm5.609 106.82C23.883 129.41 9.168 100.867 5.195 62.332h11.051c0 35.574 16.613 71.148 19.945 77.93l-.351.312zM4.879 59.191c-.184-3.37-.559-10.734-.531-14.687.183 1.023 2.132 2.352 2.132 2.352-.355.449-.886.628.418.769 1.305.14 1.86-1.227 1.86-1.227 3.672-.851 6.02.57 5.941 1.743-.074 1.039-2.312.488-4.3.113-1.985-.371-3.497.082-4.231 1.36-.73 1.28 1.324 2.84 1.324 2.84-.535.745-.62 1.62-.644 2.116-.133 2.524-1.735 4.293-1.942 4.567-.011.015-.02.035-.027.054zm5.86 1.512c.128.113.277.188.437.23-1.774-.003-3.059 0-3.977.005-.082-.493-.808-.5-.867-.825-.059-.324.348-1.222 1.668-2.511.578-.563 1.516-1.625 1.516-1.625s.496 1.035-.004 3.261c-.063.274.758 1.047 1.226 1.465zm-6.376-17h13.078a.484.484 0 00-.152.363.5.5 0 00.578.493c.094.172.274.48.551.789.41.465.18.726.18.726-.563.032-1.332.66-1.332.66l.21.41-1.206 1.462.418.472-1.442 1.402s.77-.093.477.41c-.293.505-1.63.602-3.082.137-1.457-.465-2.551-.398-3.024-.246-.476.149-1.508 1.164-2.078-.168-.57-1.328 1.113-1.765 2.332-1.554.766.132 5.496 1.804 5.719-.567.223-2.375-1.809-2.836-3.785-3.18-1.332-.23-3.117.215-3.41.051-.973-.55-2.165-.492-2.165-.492l.032.594c-.801-.293-1.903-1.293-1.903-1.293-.004.012-.004.023-.007.035.003-.176.003-.344.011-.504zm14.52 0a.5.5 0 00.133.867l-.133.426-.656-.691a.496.496 0 00-.086-.602h.742zm.535 13.047c.633.145 1.059 2.773 1.09 3.031.066.567.086.985.484 1.235-2.039.097-4.117-.067-6.773-.075-.25-.004-.489-.004-.727-.004-.086-.66-1.699-.769-1.762-1.285-.093-.773.47-1.992.973-2.77.516-.792.676-1.53 1.774-.968 2.3 1.18 4.523.738 4.941.836zm.078-13.047h1.418a.495.495 0 00-.281.453c0 .192.11.356.265.438l-.558.832-.93-.88a.498.498 0 00.086-.843zm1.86 0h1.511a.5.5 0 00-.25.809l-.965.875-.304-.778a.503.503 0 00.008-.906zm6.761 15.516c-.68.336-1.43.64-2.254.91a17.64 17.64 0 01-2.793.68.984.984 0 00-.558-.676c-1.008-.457-1.078-3.149-.926-3.715.121-.441 1.531-1.473 1.871-1.602 1.004-.375 2.29-.261 2.957-.16a2.64 2.64 0 00-.824 1.934 2.652 2.652 0 002.527 2.629zm-4.992-15.516h3.047s-.195.676 2.152 1.266c2.348.59 4.242 2.187 4.32 6.957.04 2.281-.593 4.02-1.851 5.37.066-.237.102-.483.102-.737a2.655 2.655 0 00-2.372-2.621l.172-.086c-.3-1.364-1.433-1.098-2.277-.711-.844.382-1.688.183-2.621-.075-.934-.257-1.871-1.152-1.79-1.562.087-.406 1.024.168 1.024.168.606-.527.371-1.11.371-1.11-.289.235-1.375-.632-1.347-.98.027-.352.96-.445 1.222-.387.262.055.41.696.41.696s.786-.79.84-1.168c.055-.38-.82-.492-.996-.985-.18-.496-1.492-1.07-1.351-1.39.144-.32-.117-.692-.117-.692s.53-.648.8-.988c.043.012.09.023.137.023a.502.502 0 00.125-.988zM55.27 143.27c8.785-10.145 30.796-41.59 30.796-102.016H60.418c-.398-.316-.93-.535-1.648-.535 0 0 .496-.578-.942-1.172h.004L59 36.238c.875.164 1.656-1.113.617-1.754-.035-.02-.074-.043-.11-.062.638-1.168 2.087-4.07 2.821-7.559h-.613s3.37-6.125 4.21-10.527v-.004h.005a2.159 2.159 0 002.156-2.16 2.159 2.159 0 10-2.914 2.02l-.012.027s-2.066 5.629-3.445 7.734c0 0-.055-7.062-.903-10.91a2.277 2.277 0 10-2.445-2.27c0 .848.465 1.586 1.153 1.977-1.067 1.875-3.438 5.496-8.024 10.3l-7.062-11.3a2.394 2.394 0 001.945-2.352 2.399 2.399 0 00-4.797 0c0 1.2.887 2.196 2.043 2.368L36.57 23.05c-4.582-4.805-6.953-8.426-8.023-10.301a2.271 2.271 0 001.152-1.977 2.277 2.277 0 10-2.445 2.27c-.848 3.848-.902 10.91-.902 10.91-1.38-2.105-3.446-7.734-3.446-7.734l-.011-.028a2.156 2.156 0 001.402-2.02 2.159 2.159 0 10-4.316 0c0 1.192.964 2.161 2.156 2.161h.004v.004c.84 4.402 4.21 10.527 4.21 10.527h-.613c.735 3.489 2.184 6.39 2.82 7.559l-.105.062c-1.043.641-.262 1.918.613 1.754l1.168 3.309h.004c-1.437.594-.941 1.172-.941 1.172-.715 0-1.25.218-1.649.535H2c0 60.426 22.012 91.871 30.797 102.016l.012.035-15.207 16.59c-2.122 1.878.289 5.554 2.164 7.824a5.364 5.364 0 004.14 1.953H64.16a5.364 5.364 0 004.14-1.953c1.872-2.27 4.286-5.946 2.165-7.824l-15.207-16.59.011-.035z" />
      </g>
      <defs>
        <clipPath id="clip0">
          <path fill="rgba(12, 12, 12, 0.7)" d="M0 0h160v170H0z" />
        </clipPath>
      </defs>
    </svg>