 <svg
      viewBox="0 0 160 170"
      fill="none"
      xmlns="http://www.w3.org/2000/svg"
    >
      <title>League Cup</title>
      <path
        d="M120.111 113.113c-1.438 1.242-5.094 3.703-6.867 5.5-2.278 2.317-1.227 3.086-2.032 3.438-1 .433-1.937.105-2.84-.528-.461-.324.024-1.796-.421-2.066-.352-.215-.997-.078-1.602.125.184-2.246.328-4.184.328-4.621a1.44 1.44 0 00-1.027-1.426v-2.711c0-1.328.074-2.574.199-3.754.434-.004.945-.343 1.379-1.98.617-2.332 1.586-1.977 2.332-1.813.707.153 1.527 1.125 2.273-.996a.81.81 0 01.489-.484c.476-.18 1.308-.563 1.73-1.172.121-.176.363-.215.512-.066.547.543 1.629 1.511 1.793.808.289-1.262.808-2.328 1.097-2.199.293.129.778 1.551 2.918.234.618-.484 3.481.637 3.934 3.321.453 2.687.594 6.25-4.195 10.39zm-64.88.422s-1.03.262-1.03 1.426c0 .437.148 2.375.328 4.621-.606-.203-1.25-.34-1.602-.125-.441.27.043 1.742-.418 2.066-.902.633-1.844.961-2.84.528-.808-.352.246-1.121-2.035-3.438-1.77-1.797-5.43-4.258-6.863-5.5-4.79-4.14-4.649-7.703-4.196-10.39.454-2.684 3.317-3.805 3.93-3.32 2.145 1.316 2.63-.106 2.918-.235.293-.129.813.937 1.102 2.199.164.703 1.246-.265 1.793-.808.148-.149.387-.11.508.066.425.609 1.254.992 1.734 1.172a.804.804 0 01.484.484c.746 2.121 1.57 1.149 2.278.996.746-.164 1.714-.519 2.332 1.813.43 1.637.945 1.976 1.379 1.98.125 1.18.199 2.426.199 3.754v2.711zm76.595-17.96c-.489-.65-3.075 1.519-3.692 1.23-.613-.293-6.117-6.13-13.234-2.559 0 0-1.489-.008-1.231-1.152.258-1.145-1.425.02-1.879.508-.433.464-2.746 2.808-.789 3.683.157.067.211.262.133.41-.57 1.043-1.738 1.203-1.558 1.825.171.609-.672 1.132-2.032.046.016-.039.028-.082.043-.12 0 0 .832-1.844-.277-1.844.238-.266.277-.504.277-.504v-.688c1.309-.21 2.703-2.097 2.703-2.097h-.007c.179-.169.281-.34.281-.512 0-2.102-13.488-3.801-30.125-3.801-16.633 0-30.121 1.7-30.121 3.8 0 .173.101.344.281.513h-.008s1.395 1.886 2.703 2.097v.688s.036.238.274.504c-1.106 0-.274 1.843-.274 1.843.012.04.028.082.04.121-1.356 1.086-2.204.563-2.028-.047.176-.62-.988-.78-1.559-1.824-.082-.148-.023-.343.13-.41 1.96-.875-.352-3.219-.79-3.683-.449-.489-2.133-1.653-1.875-.508.258 1.144-1.23 1.152-1.23 1.152-7.117-3.57-12.621 2.266-13.239 2.559-.613.289-3.203-1.88-3.687-1.23-.484.648 2.332 3.913 2.332 3.913s-1.863 2.321-.488 7.766c1.933 7.652 12.004 11.148 13.496 13.078.476.617-.828 1.949-.196 3.191.555 1.094 2.227 1.426 3.157 1.75 2.101.739 1.996 2.028 2.8 1.86.548-.113-.011-.867.598-1.192.98-.527 1.957-1.636 2.477-1.789 1.422-.422 1.39.84 1.39 1.36 0 .515.196 1.742-2.007 1.91-2.7.203-2.665 1.918-1.36 4.562.43.864-1.226 1.262-1.355 1.911-.067.324 1.644.789 2.715.085 1.05-.691 1.457-2.546 1.457-2.546.48-.2.918-.45 1.32-.739.918 8.184 5.738 15.184 12.562 19.094.352.199.63.504.786.879l.007.016c.176.437.063.937-.293 1.246l-4.449 3.89c-.718.625-1.129 1.532-1.129 2.606v.785c0 .633-.386 1.184-.965 1.437-.746.332-1.375.969-1.785 1.457-.496.598-.511 1.481-.015 2.079 1.27 1.535 5.59 3.754 20.328 3.754 14.742 0 19.062-2.219 20.332-3.754.496-.598.48-1.481-.02-2.079-.406-.488-1.039-1.125-1.78-1.457-.579-.253-.966-.804-.966-1.437v-.785c0-1.074-.41-1.981-1.129-2.606l-4.449-3.89a1.096 1.096 0 01-.293-1.246l.008-.016c.152-.375.434-.68.781-.879 6.824-3.91 11.649-10.91 12.563-19.094.402.289.843.539 1.32.739 0 0 .41 1.855 1.461 2.546 1.07.704 2.781.239 2.715-.085-.129-.649-1.785-1.047-1.36-1.911 1.309-2.644 1.344-4.359-1.359-4.562-2.203-.168-2.008-1.395-2.008-1.91 0-.52-.031-1.782 1.395-1.36.519.153 1.496 1.262 2.476 1.789.61.325.051 1.079.594 1.192.809.168.703-1.121 2.805-1.86.929-.324 2.597-.656 3.156-1.75.633-1.242-.676-2.574-.195-3.191 1.492-1.93 11.558-5.426 13.496-13.078 1.375-5.445-.488-7.766-.488-7.766s2.816-3.265 2.332-3.914z"
        fill="rgba(12, 12, 12, 0.7)"
      />
    </svg>