<svg id="Layer_1" data-name="Layer 1" xmlns="http://www.w3.org/2000/svg" viewBox="0 0 138.54 48.99"><defs><style>.cls-1{fill:#fff;}</style></defs><path class="cls-1" d="M23.88,48.27,3.35,34.9A7.17,7.17,0,0,1,.18,30.66c-.83-3.87,1.9-7.19,1.9-7.19L28.73,40.83a4.44,4.44,0,1,1-4.85,7.44Z"/><path class="cls-1" d="M4.43,20.6a7.45,7.45,0,0,1-3.14-6.3A7.37,7.37,0,0,1,4.43,8.05L15.66.7A4.44,4.44,0,1,1,20.5,8.15h0L11,14.32l16.12,10.5s2.9,1.67,3.47,4.47a9.31,9.31,0,0,1-1.9,7.14Z"/><path class="cls-1" d="M25.56,10a4.33,4.33,0,0,0-2.53.81l-5.49,3.57L23,17.89A4.37,4.37,0,1,0,25.56,10"/><path class="cls-1" d="M4.37,49a4.36,4.36,0,0,0,2.54-.81l5.48-3.57L6.91,41a4.53,4.53,0,0,0-2.54-.81,4.38,4.38,0,0,0,0,8.76"/><path class="cls-1" d="M46.8,38.94a5.59,5.59,0,0,0,3.7-1.25v2a6.71,6.71,0,0,1-3.89,1.11,6,6,0,0,1,0-12A6.16,6.16,0,0,1,50.34,30v2.14a4.83,4.83,0,0,0-3.61-1.51,4.21,4.21,0,1,0,0,8.42Z"/><path class="cls-1" d="M54.5,40.54H52.59V25.24l1.91,1.18V30.9a4.65,4.65,0,0,1,4-2.19c2.92,0,4.48,2.14,4.48,5v6.84H61.07V34c0-2.26-1-3.46-3-3.46s-3.56,1.84-3.56,4.15Z"/><path class="cls-1" d="M74.86,38.6a5.05,5.05,0,0,1-4.26,2.19,5.7,5.7,0,0,1-5.84-5.56c0-.15,0-.29,0-.44a5.75,5.75,0,0,1,5.43-6.07h.4A5,5,0,0,1,74.86,31V29H76.8V40.54H74.87ZM66.8,34.77a4.06,4.06,0,1,0,8.11.4,2.67,2.67,0,0,0,0-.4,4.06,4.06,0,1,0-8.11-.4A2.67,2.67,0,0,0,66.8,34.77Z"/><path class="cls-1" d="M81.67,40.54H79.8V28.92h1.91v2.47A4.7,4.7,0,0,1,86,28.71V30.9c-2.31-.33-4.25,1.23-4.25,4.1Z"/><path class="cls-1" d="M105.48,35.47H96.31A4,4,0,0,0,100.55,39a7,7,0,0,0,4.15-1.3V39.5a7.21,7.21,0,0,1-4.15,1.25c-3.65,0-6.27-2.35-6.27-5.91s2.22-6.13,5.73-6.13c3.35,0,5.54,2.47,5.54,5.8A6.2,6.2,0,0,1,105.48,35.47Zm-9.15-1.55h7.19a3.44,3.44,0,0,0-3.44-3.44h0A3.68,3.68,0,0,0,96.33,33.92Z"/><path class="cls-1" d="M109.56,40.54h-1.91V28.92h1.91v2.47a4.67,4.67,0,0,1,4.24-2.68V30.9c-2.31-.33-4.24,1.23-4.24,4.1Z"/><path class="cls-1" d="M125.14,35.47H116A4,4,0,0,0,120.21,39a7,7,0,0,0,4.15-1.3V39.5a7.21,7.21,0,0,1-4.15,1.25c-3.65,0-6.27-2.35-6.27-5.91s2.22-6.13,5.73-6.13c3.35,0,5.54,2.47,5.54,5.8A6.2,6.2,0,0,1,125.14,35.47ZM116,33.92h7.19a3.46,3.46,0,0,0-3.48-3.44h0A3.69,3.69,0,0,0,116,33.92Z"/><path class="cls-1" d="M136.6,38.54a5,5,0,0,1-4.27,2.24,5.7,5.7,0,0,1-5.83-5.57c0-.14,0-.29,0-.43a5.75,5.75,0,0,1,5.43-6.07h.39A5,5,0,0,1,136.6,31V25.24l1.93,1.18V40.54H136.6Zm-8.11-3.74a4.06,4.06,0,1,0,8.11.4,2.67,2.67,0,0,0,0-.4,4.06,4.06,0,1,0-8.11-.4A2.67,2.67,0,0,0,128.49,34.8Z"/><path class="cls-1" d="M89.25,36.68A2,2,0,0,0,91,38.94a2.44,2.44,0,0,0,.54,0,4.61,4.61,0,0,0,2.71-.85V40a5,5,0,0,1-2.87.83c-2.48,0-4-1.11-4-4.24V25.23l1.91,1.18Z"/><path class="cls-1" d="M92.34,28.77a1.47,1.47,0,0,0-1.61,2.47h0a1.48,1.48,0,0,0,1.59,0L94.22,30Z"/><path class="cls-1" d="M44.53,22.18c1.36,0,2.35-.59,2.35-1.65,0-.64-.33-1.13-1.2-1.49l-2.76-1.1c-1.41-.62-2.19-1.42-2.19-2.93,0-2,1.63-3.3,4-3.3a5.89,5.89,0,0,1,3.54,1.07v2a5.55,5.55,0,0,0-3.51-1.49c-1.23,0-2.1.57-2.1,1.51,0,.71.33,1.13,1.25,1.49l2.76,1.1c1.48.64,2.17,1.54,2.17,2.79,0,2.21-1.8,3.58-4.32,3.58a6.61,6.61,0,0,1-4-1.16V20.51A5.71,5.71,0,0,0,44.53,22.18Z"/><path class="cls-1" d="M52.45,19.66a2,2,0,0,0,1.7,2.26,2.44,2.44,0,0,0,.54,0,4.61,4.61,0,0,0,2.71-.85v1.86a5.07,5.07,0,0,1-2.88.83c-2.47,0-4-1.11-4-4.24V9.38L52.43,8.2Z"/><path class="cls-1" d="M68.07,21.6a5.07,5.07,0,0,1-4.27,2.16A5.7,5.7,0,0,1,58,18.2c0-.15,0-.29,0-.44a5.76,5.76,0,0,1,5.46-6h.37A5,5,0,0,1,68.06,14V12H70V23.6H68.07ZM60,17.8a4.06,4.06,0,1,0,8.11.4,2.67,2.67,0,0,0,0-.4A4.06,4.06,0,1,0,60,17.4,2.67,2.67,0,0,0,60,17.8Z"/><path class="cls-1" d="M74.89,23.6H73V11.93h1.91v2a4.65,4.65,0,0,1,4-2.2c2.92,0,4.47,2.15,4.47,5V23.6H81.43V17c0-2.26-1-3.46-3-3.46s-3.55,1.83-3.55,4.14Z"/><path class="cls-1" d="M95.25,21.52A5,5,0,0,1,91,23.76a5.7,5.7,0,0,1-5.83-5.57c0-.14,0-.29,0-.43a5.75,5.75,0,0,1,5.42-6.08H91A5,5,0,0,1,95.25,14V9.38L97.18,8.2V23.6H95.25Zm-8.11-3.75a4.06,4.06,0,1,0,8.11.4,2.67,2.67,0,0,0,0-.4,4.06,4.06,0,1,0-8.11-.4A2.67,2.67,0,0,0,87.14,17.77Z"/><path class="cls-1" d="M130.61,21.52a5,5,0,0,1-4.27,2.24,5.7,5.7,0,0,1-5.83-5.57c0-.14,0-.29,0-.43a5.75,5.75,0,0,1,5.42-6.08h.4A5,5,0,0,1,130.61,14V9.38l1.93-1.18V23.6h-1.93Zm-8.11-3.75a4.06,4.06,0,1,0,8.11.4,2.67,2.67,0,0,0,0-.4,4.06,4.06,0,1,0-8.11-.4A2.67,2.67,0,0,0,122.5,17.77Z"/><path class="cls-1" d="M109.35,21.6a5.11,5.11,0,0,1-4.27,2.19,5.7,5.7,0,0,1-5.83-5.57c0-.14,0-.29,0-.43a5.75,5.75,0,0,1,5.42-6.08h.4a5.08,5.08,0,0,1,4.27,2.24v-2h1.93V23.6h-1.93Zm-8.11-3.8a4.06,4.06,0,1,0,8.11.4,2.67,2.67,0,0,0,0-.4,4.06,4.06,0,1,0-8.11-.4A2.67,2.67,0,0,0,101.24,17.8Z"/><path class="cls-1" d="M116.16,23.6h-1.91V11.93h1.91V14.4a4.68,4.68,0,0,1,4.24-2.69v2.2c-2.31-.33-4.24,1.22-4.24,4.1Z"/><path class="cls-1" d="M55.14,14.4a1.47,1.47,0,0,0,1.6-2.47h0a1.48,1.48,0,0,0-1.59,0l-1.9,1.22Z"/></svg>