 <svg
      viewBox="0 0 160 170"
      fill="none"
      xmlns="http://www.w3.org/2000/svg"
    >
      <title>UEFA Cup</title>
      <path
        d="M111.428 29.454a.53.53 0 00-.558-.453L94.592 30.26H65.854l-16.273-1.258a.531.531 0 00-.563.453l-.015.125a.567.567 0 00.004.141l.511 2.484a.86.86 0 00.395.563l.508.312s3.578 8.145 6.117 21.079c2.93 14.91 7.258 39.98 7.258 39.98-.286.281-.395.7-.278 1.086l4.664 15.887c.239.816.266 1.679.082 2.511l-.093.407a1.81 1.81 0 01-.43.843c-.223.243-.508.637-.617 1.141-.102.461.062 1.039.246 1.488.21.524.261 1.098.144 1.653l-1.101 5.132a21.681 21.681 0 00-.57 3.204l-.66 6.461c-.04.41-.122.812-.235 1.207l-1.36 4.609c-.074.246-.19.48-.359.68-.305.359-.809 1.047-.945 1.816a3.1 3.1 0 00-.04.949c.06.492-.19.969-.644 1.168l-.152.067c-.57.25-.992.754-1.14 1.359l-4.009 16.676c-.109.449.012.929.336 1.258 1.352 1.363 6.305 4.39 23.59 4.39 17.282 0 22.235-3.027 23.586-4.39.328-.329.445-.809.336-1.258l-4.008-16.676a2.005 2.005 0 00-1.14-1.359l-.153-.067a1.117 1.117 0 01-.644-1.168 3.214 3.214 0 00-.035-.949c-.141-.769-.645-1.457-.946-1.816a1.919 1.919 0 01-.363-.68l-1.355-4.609a6.351 6.351 0 01-.239-1.207l-.66-6.461c-.11-1.082-.3-2.153-.57-3.204l-1.102-5.132a2.848 2.848 0 01.149-1.653c.18-.449.343-1.027.246-1.488a2.525 2.525 0 00-.621-1.141 1.81 1.81 0 01-.43-.843l-.09-.407a5.017 5.017 0 01.078-2.511l4.664-15.887a1.085 1.085 0 00-.277-1.086s4.328-25.07 7.258-39.98c2.543-12.934 6.117-21.079 6.117-21.079l.508-.312a.86.86 0 00.394-.563l.512-2.484a.416.416 0 00.004-.14l-.016-.126z"
        fill="rgba(12, 12, 12, 0.7)"
      />
    </svg>