 <svg
      viewBox="0 0 160 170"
      fill="none"
      xmlns="http://www.w3.org/2000/svg"
    >
      <title>UEFA Super Cup</title>
      <path
        fillRule="evenodd"
        clipRule="evenodd"
        d="M98.753 105.004c-5.25 13.336-11.86 17.449-11.86 17.449-.98.543-.441-.34-.441-.34 14.457-19.558 13.824-34.308 13.875-34.851.047-.535.488-.047.488-.047s1.864 7.847-2.062 17.789zm-18.555 36.074a5.183 5.183 0 110-10.363 5.182 5.182 0 110 10.363zm-7-18.625s-6.605-4.113-11.86-17.449c-3.921-9.942-2.058-17.79-2.058-17.79s.441-.487.488.048c.051.543-.586 15.293 13.867 34.851 0 0 .543.883-.437.34zm33.449-47.734s-.097-.59-1.129-1.668c0 0-1.422-5.293-3.234-6.961 0 0-.246-.59-1.52-.39 0 0-.437-6.274-1.957-11.466 0 0-.882-3.23-18.746-3.234h-.027c-17.867.004-18.746 3.234-18.746 3.234-1.52 5.192-1.961 11.465-1.961 11.465-1.273-.199-1.52.39-1.52.39-1.816 1.669-3.234 6.962-3.234 6.962-1.031 1.078-1.129 1.668-1.129 1.668-.684 2.402-.535 6.91.152 15.73.684 8.824 2.84 13.922 4.95 19.219 2.375 5.969 1.968 5.059 10.043 18.82 3.187 8.332 2.109 11.121 1.086 14.742-1.036 3.633-4.22 12.215-4.22 12.215h-2.698c-.73.633-1.418 1.61-1.664 2.59-.25.981.488 1.227.488 1.227h1.062v3.926h-.96c-.739 0-.708.75-.708.75 0 3.429 3.696 4.148 3.696 4.148h30.75s3.699-.719 3.699-4.148c0 0 .027-.75-.707-.75h-.961v-3.926h1.058s.735-.246.493-1.227c-.25-.98-.938-1.957-1.668-2.59h-2.696s-3.187-8.582-4.218-12.215c-1.024-3.621-2.106-6.41 1.082-14.742 0 0 7.937-13.531 10.047-18.82 2.105-5.297 4.261-10.395 4.949-19.219.687-8.82.836-13.328.148-15.73z"
        fill="rgba(12, 12, 12, 0.7)"
      />
    </svg>